# xmcd
#
# Track frame offsets:
#	150
#	19150
#	31575
#	49762
#	68950
#	83462
#	104200
#	120970
#	129900
#	145175
#	160950
#	177675
#
# Disc length: 2628 seconds
#
# Revision: 1
# Processed by: cddbd v1.4PL0 Copyright (c) Steve Scherf et al.
# Submitted via: audiograbber 1.80.04
#
DISCID=9b0a420c
DTITLE=Warratahs - Big Sky
DYEAR=1900
DGENRE=Country
TTITLE0=Big Sky
TTITLE1=High and Dry
TTITLE2=To Whom It May Concern
TTITLE3=Tight Rope
TTITLE4=Torch Song
TTITLE5=No Work Street
TTITLE6=Another Town
TTITLE7=Diggy's Dam
TTITLE8=On the Same Side
TTITLE9=Who Do You Believe
TTITLE10=It's All Over Now
TTITLE11=Wild Mountain Thyme
EXTD=
EXTT0=
EXTT1=
EXTT2=
EXTT3=
EXTT4=
EXTT5=
EXTT6=
EXTT7=
EXTT8=
EXTT9=
EXTT10=
EXTT11=
PLAYORDER=
